<?xml version="1.0" ?><svg height="32px" version="1.1" viewBox="0 0 32 32" width="32px" xmlns="http://www.w3.org/2000/svg" xmlns:xlink="http://www.w3.org/1999/xlink"><title/><desc/><defs/><g fill="none" fill-rule="evenodd" id="Page-1" stroke="none" stroke-width="1"><g id="letter-E"><g id="Page-1" transform="translate(5.000000, 2.000000)"><path d="M18.9502,4.8738 L6.1722,4.8738 L6.1722,11.7498 L17.9382,11.7498 C18.8042,11.7498 19.4502,11.9438 19.8762,12.3318 C20.3032,12.7208 20.5162,13.2328 20.5162,13.8698 C20.5162,14.5068 20.3062,15.0248 19.8862,15.4268 C19.4662,15.8278 18.8162,16.0278 17.9382,16.0278 L6.1722,16.0278 L6.1722,23.9928 L19.3892,23.9928 C20.2812,23.9928 20.9522,24.1998 21.4042,24.6128 C21.8562,25.0268 22.0822,25.5778 22.0822,26.2658 C22.0822,26.9278 21.8562,27.4658 21.4042,27.8788 C20.9522,28.2928 20.2812,28.4998 19.3892,28.4998 L3.9762,28.4998 C2.7412,28.4998 1.8532,28.2258 1.3122,27.6788 C0.7702,27.1308 0.5002,26.2458 0.5002,25.0238 L0.5002,3.9758 C0.5002,3.1608 0.6212,2.4958 0.8632,1.9798 C1.1052,1.4648 1.4832,1.0888 1.9992,0.8538 C2.5152,0.6178 3.1742,0.4998 3.9762,0.4998 L18.9502,0.4998 C19.8542,0.4998 20.5262,0.7008 20.9652,1.1018 C21.4042,1.5028 21.6242,2.0278 21.6242,2.6778 C21.6242,3.3398 21.4042,3.8708 20.9652,4.2718 C20.5262,4.6728 19.8542,4.8738 18.9502,4.8738" fill="#F42F42" id="Fill-1"/><path d="M18.9502,4.8738 L6.1722,4.8738 L6.1722,11.7498 L17.9382,11.7498 C18.8042,11.7498 19.4502,11.9438 19.8762,12.3318 C20.3032,12.7208 20.5162,13.2328 20.5162,13.8698 C20.5162,14.5068 20.3062,15.0248 19.8862,15.4268 C19.4662,15.8278 18.8162,16.0278 17.9382,16.0278 L6.1722,16.0278 L6.1722,23.9928 L19.3892,23.9928 C20.2812,23.9928 20.9522,24.1998 21.4042,24.6128 C21.8562,25.0268 22.0822,25.5778 22.0822,26.2658 C22.0822,26.9278 21.8562,27.4658 21.4042,27.8788 C20.9522,28.2928 20.2812,28.4998 19.3892,28.4998 L3.9762,28.4998 C2.7412,28.4998 1.8532,28.2258 1.3122,27.6788 C0.7702,27.1308 0.5002,26.2458 0.5002,25.0238 L0.5002,3.9758 C0.5002,3.1608 0.6212,2.4958 0.8632,1.9798 C1.1052,1.4648 1.4832,1.0888 1.9992,0.8538 C2.5152,0.6178 3.1742,0.4998 3.9762,0.4998 L18.9502,0.4998 C19.8542,0.4998 20.5262,0.7008 20.9652,1.1018 C21.4042,1.5028 21.6242,2.0278 21.6242,2.6778 C21.6242,3.3398 21.4042,3.8708 20.9652,4.2718 C20.5262,4.6728 19.8542,4.8738 18.9502,4.8738 L18.9502,4.8738 Z" id="Stroke-3" stroke="#330910"/><path d="M21.0676,26.5098 C20.7126,26.8348 20.1476,26.9998 19.3896,26.9998 L3.9756,26.9998 C2.8846,26.9998 2.1086,26.7738 1.6676,26.3268 C1.3766,26.0328 1.1896,25.5838 1.0886,25.0138 L1.0006,25.0238 C1.0006,26.1038 1.2246,26.8788 1.6676,27.3268 C2.1086,27.7738 2.8846,27.9998 3.9756,27.9998 L19.3896,27.9998 C20.1476,27.9998 20.7126,27.8348 21.0676,27.5098 C21.4146,27.1938 21.5826,26.7858 21.5826,26.2658 C21.5826,26.0798 21.5556,25.9138 21.5156,25.7558 C21.4396,26.0488 21.2956,26.3018 21.0676,26.5098" fill="#332E09" id="Fill-5" opacity="0.203766325"/><path d="M6.1077,2 L16.7327,2" id="Stroke-7" stroke="#FFFFFF" stroke-dasharray="1,2,6,2,3" stroke-linecap="round" stroke-linejoin="round"/></g></g></g></svg>