<?xml version="1.0" ?><svg height="32px" version="1.1" viewBox="0 0 32 32" width="32px" xmlns="http://www.w3.org/2000/svg" xmlns:xlink="http://www.w3.org/1999/xlink"><title/><desc/><defs/><g fill="none" fill-rule="evenodd" id="Page-1" stroke="none" stroke-width="1"><g id="letter-F"><g id="Page-1" transform="translate(6.000000, 2.000000)"><path d="M17.0634,4.8005 L6.0774,4.8005 L6.0774,11.8425 L15.2604,11.8425 C16.1124,11.8425 16.7474,12.0335 17.1664,12.4155 C17.5864,12.7975 17.7954,13.3075 17.7954,13.9465 C17.7954,14.5845 17.5834,15.0915 17.1574,15.4675 C16.7314,15.8425 16.0994,16.0305 15.2604,16.0305 L6.0774,16.0305 L6.0774,25.1005 C6.0774,26.2525 5.8174,27.1075 5.2984,27.6645 C4.7784,28.2215 4.1124,28.5005 3.2984,28.5005 C2.4714,28.5005 1.7994,28.2185 1.2794,27.6545 C0.7594,27.0915 0.5004,26.2405 0.5004,25.1005 L0.5004,3.9175 C0.5004,3.1165 0.6194,2.4625 0.8564,1.9555 C1.0944,1.4485 1.4674,1.0795 1.9744,0.8475 C2.4814,0.6155 3.1294,0.5005 3.9174,0.5005 L17.0634,0.5005 C17.9524,0.5005 18.6124,0.6975 19.0444,1.0915 C19.4764,1.4855 19.6924,2.0025 19.6924,2.6405 C19.6924,3.2915 19.4764,3.8145 19.0444,4.2085 C18.6124,4.6035 17.9524,4.8005 17.0634,4.8005" fill="#F42F42" id="Fill-1"/><path d="M17.0634,4.8005 L6.0774,4.8005 L6.0774,11.8425 L15.2604,11.8425 C16.1124,11.8425 16.7474,12.0335 17.1664,12.4155 C17.5864,12.7975 17.7954,13.3075 17.7954,13.9465 C17.7954,14.5845 17.5834,15.0915 17.1574,15.4675 C16.7314,15.8425 16.0994,16.0305 15.2604,16.0305 L6.0774,16.0305 L6.0774,25.1005 C6.0774,26.2525 5.8174,27.1075 5.2984,27.6645 C4.7784,28.2215 4.1124,28.5005 3.2984,28.5005 C2.4714,28.5005 1.7994,28.2185 1.2794,27.6545 C0.7594,27.0915 0.5004,26.2405 0.5004,25.1005 L0.5004,3.9175 C0.5004,3.1165 0.6194,2.4625 0.8564,1.9555 C1.0944,1.4485 1.4674,1.0795 1.9744,0.8475 C2.4814,0.6155 3.1294,0.5005 3.9174,0.5005 L17.0634,0.5005 C17.9524,0.5005 18.6124,0.6975 19.0444,1.0915 C19.4764,1.4855 19.6924,2.0025 19.6924,2.6405 C19.6924,3.2915 19.4764,3.8145 19.0444,4.2085 C18.6124,4.6035 17.9524,4.8005 17.0634,4.8005 L17.0634,4.8005 Z" id="Stroke-3" stroke="#330910"/><path d="M3.2979,27 C2.6109,27 2.0709,26.776 1.6469,26.316 C1.2179,25.851 0.9999,25.105 0.9999,24.101 L0.9999,25.101 C0.9999,26.105 1.2179,26.851 1.6469,27.316 C2.0709,27.776 2.6109,28 3.2979,28 C3.9739,28 4.5079,27.778 4.9329,27.323 C5.3609,26.864 5.5769,26.117 5.5769,25.101 L5.5769,24.101 C5.5769,25.117 5.3609,25.864 4.9329,26.323 C4.5079,26.778 3.9739,27 3.2979,27" fill="#332E09" id="Fill-5" opacity="0.203766325"/><path d="M5.8458,2.0859 L15.5958,2.0859" id="Stroke-7" stroke="#FFFFFF" stroke-dasharray="1,2,6,2,3" stroke-linecap="round" stroke-linejoin="round"/></g></g></g></svg>