<?xml version="1.0" ?><svg height="32px" version="1.1" viewBox="0 0 32 32" width="32px" xmlns="http://www.w3.org/2000/svg" xmlns:xlink="http://www.w3.org/1999/xlink"><title/><desc/><defs/><g fill="none" fill-rule="evenodd" id="Page-1" stroke="none" stroke-width="1"><g id="letter-J"><g id="Page-1" transform="translate(7.000000, 2.000000)"><path d="M18.471,3.8245 L18.471,18.0095 C18.471,19.2405 18.419,20.2875 18.314,21.1495 C18.209,22.0105 17.972,22.8855 17.603,23.7715 C16.987,25.2615 15.971,26.4225 14.555,27.2535 C13.139,28.0845 11.416,28.4995 9.384,28.4995 C7.549,28.4995 6.019,28.2105 4.794,27.6315 C3.569,27.0535 2.581,26.1175 1.83,24.8245 C1.436,24.1345 1.116,23.3405 0.869,22.4415 C0.623,21.5435 0.5,20.6875 0.5,19.8745 C0.5,19.0125 0.74,18.3535 1.22,17.8985 C1.701,17.4425 2.316,17.2155 3.067,17.2155 C3.794,17.2155 4.342,17.4245 4.711,17.8425 C5.08,18.2615 5.364,18.9145 5.561,19.8005 C5.77,20.7485 5.979,21.5065 6.189,22.0725 C6.398,22.6385 6.749,23.1255 7.241,23.5315 C7.734,23.9375 8.436,24.1415 9.347,24.1415 C11.773,24.1415 12.986,22.3615 12.986,18.8035 L12.986,3.8245 C12.986,2.7165 13.229,1.8855 13.715,1.3315 C14.201,0.7765 14.863,0.4995 15.701,0.4995 C16.55,0.4995 17.224,0.7765 17.723,1.3315 C18.222,1.8855 18.471,2.7165 18.471,3.8245" fill="#F42F42" id="Fill-1"/><path d="M18.471,3.8245 L18.471,18.0095 C18.471,19.2405 18.419,20.2875 18.314,21.1495 C18.209,22.0105 17.972,22.8855 17.603,23.7715 C16.987,25.2615 15.971,26.4225 14.555,27.2535 C13.139,28.0845 11.416,28.4995 9.384,28.4995 C7.549,28.4995 6.019,28.2105 4.794,27.6315 C3.569,27.0535 2.581,26.1175 1.83,24.8245 C1.436,24.1345 1.116,23.3405 0.869,22.4415 C0.623,21.5435 0.5,20.6875 0.5,19.8745 C0.5,19.0125 0.74,18.3535 1.22,17.8985 C1.701,17.4425 2.316,17.2155 3.067,17.2155 C3.794,17.2155 4.342,17.4245 4.711,17.8425 C5.08,18.2615 5.364,18.9145 5.561,19.8005 C5.77,20.7485 5.979,21.5065 6.189,22.0725 C6.398,22.6385 6.749,23.1255 7.241,23.5315 C7.734,23.9375 8.436,24.1415 9.347,24.1415 C11.773,24.1415 12.986,22.3615 12.986,18.8035 L12.986,3.8245 C12.986,2.7165 13.229,1.8855 13.715,1.3315 C14.201,0.7765 14.863,0.4995 15.701,0.4995 C16.55,0.4995 17.224,0.7765 17.723,1.3315 C18.222,1.8855 18.471,2.7165 18.471,3.8245 L18.471,3.8245 Z" id="Stroke-3" stroke="#330910"/><path d="M17.1416,22.5798 C16.5706,23.9618 15.6156,25.0518 14.3026,25.8218 C12.9716,26.6028 11.3166,26.9998 9.3836,26.9998 C7.6316,26.9998 6.1596,26.7238 5.0086,26.1798 C3.8816,25.6478 2.9576,24.7708 2.2616,23.5738 C1.8926,22.9268 1.5856,22.1638 1.3516,21.3098 C1.1666,20.6338 1.0746,19.9858 1.0366,19.3608 C1.0126,19.5198 0.9996,19.6908 0.9996,19.8748 C0.9996,20.6398 1.1186,21.4588 1.3516,22.3098 C1.5856,23.1638 1.8926,23.9268 2.2616,24.5738 C2.9576,25.7708 3.8816,26.6478 5.0086,27.1798 C6.1596,27.7238 7.6316,27.9998 9.3836,27.9998 C11.3166,27.9998 12.9716,27.6028 14.3026,26.8218 C15.6156,26.0518 16.5706,24.9618 17.1416,23.5798 C17.4916,22.7378 17.7196,21.8998 17.8176,21.0888 C17.9196,20.2478 17.9716,19.2118 17.9716,18.0098 L17.9716,17.0098 C17.9716,18.2118 17.9196,19.2478 17.8176,20.0888 C17.7196,20.8998 17.4916,21.7378 17.1416,22.5798" fill="#332E09" id="Fill-5" opacity="0.203766325"/><path d="M14.8428,2.32 C14.9818,2.162 15.1928,2 15.7008,2" id="Stroke-7" stroke="#FFFFFF" stroke-linecap="round" stroke-linejoin="round"/></g></g></g></svg>