<?xml version="1.0" ?><svg height="32px" version="1.1" viewBox="0 0 32 32" width="32px" xmlns="http://www.w3.org/2000/svg" xmlns:xlink="http://www.w3.org/1999/xlink"><title/><desc/><defs/><g fill="none" fill-rule="evenodd" id="Page-1" stroke="none" stroke-width="1"><g id="letter-K"><g id="Page-1" transform="translate(4.000000, 2.000000)"><path d="M5.9855,3.8245 L5.9855,13.3175 L16.7535,2.0885 C17.2705,1.5465 17.7105,1.1465 18.0735,0.8875 C18.4375,0.6295 18.9205,0.4995 19.5235,0.4995 C20.3115,0.4995 20.9495,0.7305 21.4355,1.1925 C21.9215,1.6545 22.1645,2.2175 22.1645,2.8825 C22.1645,3.6825 21.7525,4.4775 20.9275,5.2655 L14.2595,11.5815 L21.9435,22.5895 C22.4855,23.3535 22.8915,24.0215 23.1625,24.5935 C23.4335,25.1665 23.5685,25.7235 23.5685,26.2655 C23.5685,26.8685 23.3315,27.3915 22.8575,27.8355 C22.3835,28.2785 21.7405,28.4995 20.9275,28.4995 C20.1645,28.4995 19.5425,28.3365 19.0625,28.0105 C18.5815,27.6845 18.1755,27.2505 17.8435,26.7085 C17.5105,26.1665 17.2155,25.6745 16.9565,25.2305 L10.4735,15.2575 L5.9855,19.5605 L5.9855,25.1565 C5.9855,26.2895 5.7265,27.1305 5.2095,27.6785 C4.6925,28.2255 4.0275,28.4995 3.2155,28.4995 C2.7475,28.4995 2.2975,28.3765 1.8665,28.1305 C1.4355,27.8845 1.1035,27.5515 0.8695,27.1335 C0.6975,26.7885 0.5925,26.3885 0.5555,25.9325 C0.5185,25.4775 0.5005,24.8185 0.5005,23.9565 L0.5005,3.8245 C0.5005,2.7165 0.7435,1.8855 1.2295,1.3315 C1.7155,0.7765 2.3775,0.4995 3.2155,0.4995 C4.0405,0.4995 4.7085,0.7735 5.2195,1.3215 C5.7305,1.8695 5.9855,2.7045 5.9855,3.8245" fill="#F42F42" id="Fill-1"/><path d="M5.9855,3.8245 L5.9855,13.3175 L16.7535,2.0885 C17.2705,1.5465 17.7105,1.1465 18.0735,0.8875 C18.4375,0.6295 18.9205,0.4995 19.5235,0.4995 C20.3115,0.4995 20.9495,0.7305 21.4355,1.1925 C21.9215,1.6545 22.1645,2.2175 22.1645,2.8825 C22.1645,3.6825 21.7525,4.4775 20.9275,5.2655 L14.2595,11.5815 L21.9435,22.5895 C22.4855,23.3535 22.8915,24.0215 23.1625,24.5935 C23.4335,25.1665 23.5685,25.7235 23.5685,26.2655 C23.5685,26.8685 23.3315,27.3915 22.8575,27.8355 C22.3835,28.2785 21.7405,28.4995 20.9275,28.4995 C20.1645,28.4995 19.5425,28.3365 19.0625,28.0105 C18.5815,27.6845 18.1755,27.2505 17.8435,26.7085 C17.5105,26.1665 17.2155,25.6745 16.9565,25.2305 L10.4735,15.2575 L5.9855,19.5605 L5.9855,25.1565 C5.9855,26.2895 5.7265,27.1305 5.2095,27.6785 C4.6925,28.2255 4.0275,28.4995 3.2155,28.4995 C2.7475,28.4995 2.2975,28.3765 1.8665,28.1305 C1.4355,27.8845 1.1035,27.5515 0.8695,27.1335 C0.6975,26.7885 0.5925,26.3885 0.5555,25.9325 C0.5185,25.4775 0.5005,24.8185 0.5005,23.9565 L0.5005,3.8245 C0.5005,2.7165 0.7435,1.8855 1.2295,1.3315 C1.7155,0.7765 2.3775,0.4995 3.2155,0.4995 C4.0405,0.4995 4.7085,0.7735 5.2195,1.3215 C5.7305,1.8695 5.9855,2.7045 5.9855,3.8245 L5.9855,3.8245 Z" id="Stroke-3" stroke="#330910"/><path d="M3.215,27 C2.832,27 2.472,26.9 2.115,26.696 C1.761,26.495 1.497,26.23 1.306,25.889 C1.174,25.624 1.086,25.281 1.054,24.892 C1.018,24.456 1,23.805 1,22.956 L1,23.956 C1,24.805 1.018,25.456 1.054,25.892 C1.086,26.281 1.174,26.624 1.306,26.889 C1.497,27.23 1.761,27.495 2.115,27.696 C2.472,27.9 2.832,28 3.215,28 C3.89,28 4.423,27.782 4.846,27.335 C5.27,26.885 5.486,26.152 5.486,25.157 L5.486,24.157 C5.486,25.152 5.27,25.885 4.846,26.335 C4.423,26.782 3.89,27 3.215,27 M22.999,25.708 C22.917,25.986 22.762,26.239 22.516,26.47 C22.134,26.826 21.614,27 20.928,27 C20.27,27 19.736,26.864 19.343,26.598 C18.924,26.313 18.563,25.926 18.269,25.446 C17.939,24.909 17.645,24.419 17.388,23.979 L10.955,15.08 L17.388,24.979 C17.645,25.419 17.939,25.909 18.269,26.446 C18.563,26.926 18.924,27.312 19.343,27.598 C19.736,27.864 20.27,28 20.928,28 C21.614,28 22.134,27.826 22.516,27.47 C22.888,27.122 23.069,26.728 23.069,26.266 C23.069,26.084 23.035,25.897 22.999,25.708" fill="#332E09" id="Fill-5" opacity="0.203766325"/><path d="M13.3117,7.791 L17.6557,3.447" id="Stroke-7" stroke="#FFFFFF" stroke-dasharray="1,2,6,2,3" stroke-linecap="round" stroke-linejoin="round"/></g></g></g></svg>