<?xml version="1.0" ?><svg height="32px" version="1.1" viewBox="0 0 32 32" width="32px" xmlns="http://www.w3.org/2000/svg" xmlns:xlink="http://www.w3.org/1999/xlink"><title/><desc/><defs/><g fill="none" fill-rule="evenodd" id="Page-1" stroke="none" stroke-width="1"><g id="letter-L"><g id="Page-1" transform="translate(6.000000, 2.000000)"><path d="M6.0775,3.8803 L6.0775,23.9183 L17.3825,23.9183 C18.2845,23.9183 18.9755,24.1373 19.4575,24.5753 C19.9395,25.0133 20.1805,25.5643 20.1805,26.2273 C20.1805,26.9033 19.9425,27.4513 19.4675,27.8713 C18.9915,28.2903 18.2965,28.5003 17.3825,28.5003 L3.9175,28.5003 C2.7035,28.5003 1.8305,28.2313 1.2985,27.6923 C0.7665,27.1543 0.5005,26.2843 0.5005,25.0823 L0.5005,3.8803 C0.5005,2.7533 0.7535,1.9083 1.2605,1.3453 C1.7675,0.7813 2.4345,0.5003 3.2605,0.5003 C4.0995,0.5003 4.7785,0.7783 5.2985,1.3353 C5.8175,1.8933 6.0775,2.7413 6.0775,3.8803" fill="#F42F42" id="Fill-1"/><path d="M6.0775,3.8803 L6.0775,23.9183 L17.3825,23.9183 C18.2845,23.9183 18.9755,24.1373 19.4575,24.5753 C19.9395,25.0133 20.1805,25.5643 20.1805,26.2273 C20.1805,26.9033 19.9425,27.4513 19.4675,27.8713 C18.9915,28.2903 18.2965,28.5003 17.3825,28.5003 L3.9175,28.5003 C2.7035,28.5003 1.8305,28.2313 1.2985,27.6923 C0.7665,27.1543 0.5005,26.2843 0.5005,25.0823 L0.5005,3.8803 C0.5005,2.7533 0.7535,1.9083 1.2605,1.3453 C1.7675,0.7813 2.4345,0.5003 3.2605,0.5003 C4.0995,0.5003 4.7785,0.7783 5.2985,1.3353 C5.8175,1.8933 6.0775,2.7413 6.0775,3.8803 L6.0775,3.8803 Z" id="Stroke-3" stroke="#330910"/><path d="M2.3755,2.3477 C2.5295,2.1757 2.7565,1.9997 3.2605,1.9997" id="Stroke-5" stroke="#FFFFFF" stroke-dasharray="1,2,6,2,3" stroke-linecap="round" stroke-linejoin="round"/><path d="M19.1363,26.4961 C18.7573,26.8301 18.1663,27.0001 17.3823,27.0001 L3.9173,27.0001 C2.8483,27.0001 2.0863,26.7781 1.6543,26.3411 C1.2193,25.9011 0.9993,25.1421 0.9993,24.0821 L0.9993,25.0821 C0.9993,26.1421 1.2193,26.9011 1.6543,27.3411 C2.0863,27.7781 2.8483,28.0001 3.9173,28.0001 L17.3823,28.0001 C18.1663,28.0001 18.7573,27.8301 19.1363,27.4961 C19.5033,27.1731 19.6813,26.7581 19.6813,26.2271 C19.6813,26.0501 19.6513,25.8881 19.6083,25.7331 C19.5273,26.0301 19.3763,26.2851 19.1363,26.4961" fill="#332E09" id="Fill-7" opacity="0.203766325"/></g></g></g></svg>