<?xml version="1.0" ?><svg height="32px" version="1.1" viewBox="0 0 32 32" width="32px" xmlns="http://www.w3.org/2000/svg" xmlns:xlink="http://www.w3.org/1999/xlink"><title/><desc/><defs/><g fill="none" fill-rule="evenodd" id="Page-1" stroke="none" stroke-width="1"><g id="letter-N"><g id="Page-1" transform="translate(4.000000, 2.000000)"><path d="M7.5739,3.7876 L18.1199,19.7456 L18.1199,3.6396 C18.1199,2.5936 18.3449,1.8086 18.7939,1.2846 C19.2439,0.7616 19.8499,0.4996 20.6139,0.4996 C21.4019,0.4996 22.0229,0.7616 22.4789,1.2846 C22.9349,1.8086 23.1619,2.5936 23.1619,3.6396 L23.1619,24.9356 C23.1619,27.3116 22.1769,28.4996 20.2069,28.4996 C19.7149,28.4996 19.2709,28.4296 18.8769,28.2876 C18.4829,28.1456 18.1139,27.9216 17.7689,27.6136 C17.4239,27.3056 17.1039,26.9456 16.8089,26.5326 C16.5129,26.1206 16.2179,25.6986 15.9219,25.2676 L5.6349,9.4946 L5.6349,25.3606 C5.6349,26.3946 5.3949,27.1766 4.9139,27.7056 C4.4339,28.2356 3.8179,28.4996 3.0669,28.4996 C2.2919,28.4996 1.6699,28.2326 1.2019,27.6966 C0.7339,27.1606 0.4999,26.3826 0.4999,25.3606 L0.4999,4.4706 C0.4999,3.5846 0.5989,2.8886 0.7959,2.3836 C1.0299,1.8296 1.4169,1.3776 1.9589,1.0266 C2.5009,0.6756 3.0859,0.4996 3.7139,0.4996 C4.2059,0.4996 4.6279,0.5796 4.9789,0.7396 C5.3299,0.9006 5.6379,1.1156 5.9019,1.3866 C6.1669,1.6576 6.4379,2.0086 6.7149,2.4396 C6.9919,2.8706 7.2779,3.3196 7.5739,3.7876" fill="#F42F42" id="Fill-1"/><path d="M7.5739,3.7876 L18.1199,19.7456 L18.1199,3.6396 C18.1199,2.5936 18.3449,1.8086 18.7939,1.2846 C19.2439,0.7616 19.8499,0.4996 20.6139,0.4996 C21.4019,0.4996 22.0229,0.7616 22.4789,1.2846 C22.9349,1.8086 23.1619,2.5936 23.1619,3.6396 L23.1619,24.9356 C23.1619,27.3116 22.1769,28.4996 20.2069,28.4996 C19.7149,28.4996 19.2709,28.4296 18.8769,28.2876 C18.4829,28.1456 18.1139,27.9216 17.7689,27.6136 C17.4239,27.3056 17.1039,26.9456 16.8089,26.5326 C16.5129,26.1206 16.2179,25.6986 15.9219,25.2676 L5.6349,9.4946 L5.6349,25.3606 C5.6349,26.3946 5.3949,27.1766 4.9139,27.7056 C4.4339,28.2356 3.8179,28.4996 3.0669,28.4996 C2.2919,28.4996 1.6699,28.2326 1.2019,27.6966 C0.7339,27.1606 0.4999,26.3826 0.4999,25.3606 L0.4999,4.4706 C0.4999,3.5846 0.5989,2.8886 0.7959,2.3836 C1.0299,1.8296 1.4169,1.3776 1.9589,1.0266 C2.5009,0.6756 3.0859,0.4996 3.7139,0.4996 C4.2059,0.4996 4.6279,0.5796 4.9789,0.7396 C5.3299,0.9006 5.6379,1.1156 5.9019,1.3866 C6.1669,1.6576 6.4379,2.0086 6.7149,2.4396 C6.9919,2.8706 7.2779,3.3196 7.5739,3.7876 L7.5739,3.7876 Z" id="Stroke-3" stroke="#330910"/><path d="M3.0675,27.0002 C2.4375,27.0002 1.9505,26.7932 1.5795,26.3672 C1.1945,25.9292 1.0005,25.2542 1.0005,24.3602 L1.0005,25.3602 C1.0005,26.2542 1.1945,26.9292 1.5795,27.3672 C1.9505,27.7932 2.4375,28.0002 3.0675,28.0002 C3.6755,28.0002 4.1595,27.7942 4.5445,27.3692 C4.9355,26.9382 5.1345,26.2622 5.1345,25.3602 L5.1345,24.3602 C5.1345,25.2622 4.9355,25.9382 4.5445,26.3692 C4.1595,26.7942 3.6755,27.0002 3.0675,27.0002 M20.2075,27.0002 C19.7755,27.0002 19.3845,26.9382 19.0465,26.8162 C18.7145,26.6972 18.3975,26.5042 18.1025,26.2402 C17.7895,25.9612 17.4905,25.6252 17.2145,25.2412 C16.9215,24.8322 16.6285,24.4122 16.3345,23.9842 L6.4915,9.8922 L16.3345,24.9842 C16.6285,25.4122 16.9215,25.8322 17.2145,26.2412 C17.4905,26.6252 17.7895,26.9612 18.1025,27.2402 C18.3975,27.5042 18.7145,27.6972 19.0465,27.8162 C19.3845,27.9382 19.7755,28.0002 20.2075,28.0002 C21.2605,28.0002 22.6625,27.6832 22.6625,24.9362 L22.6625,23.9362 C22.6625,26.6832 21.2605,27.0002 20.2075,27.0002" fill="#332E09" id="Fill-5" opacity="0.203766325"/><path d="M7.0147,5.6487 L11.8307,12.9927" id="Stroke-7" stroke="#FFFFFF" stroke-dasharray="1,2,6,2,3" stroke-linecap="round" stroke-linejoin="round"/></g></g></g></svg>