<?xml version="1.0" ?><svg height="32px" version="1.1" viewBox="0 0 32 32" width="32px" xmlns="http://www.w3.org/2000/svg" xmlns:xlink="http://www.w3.org/1999/xlink"><title/><desc/><defs/><g fill="none" fill-rule="evenodd" id="Page-1" stroke="none" stroke-width="1"><g id="letter-T"><g id="Page-1" transform="translate(4.000000, 2.000000)"><path d="M21.0446,5.1009 L14.9596,5.1009 L14.9596,25.1009 C14.9596,26.2529 14.7036,27.1069 14.1906,27.6639 C13.6766,28.2209 13.0136,28.4999 12.1996,28.4999 C11.3736,28.4999 10.7006,28.2179 10.1806,27.6549 C9.6616,27.0919 9.4016,26.2399 9.4016,25.1009 L9.4016,5.1009 L3.3166,5.1009 C2.3656,5.1009 1.6576,4.8909 1.1946,4.4719 C0.7316,4.0519 0.4996,3.4979 0.4996,2.8099 C0.4996,2.0959 0.7406,1.5329 1.2226,1.1199 C1.7046,0.7069 2.4026,0.4999 3.3166,0.4999 L21.0446,0.4999 C22.0086,0.4999 22.7256,0.7129 23.1946,1.1389 C23.6646,1.5639 23.8986,2.1209 23.8986,2.8099 C23.8986,3.4979 23.6616,4.0519 23.1856,4.4719 C22.7096,4.8909 21.9956,5.1009 21.0446,5.1009" fill="#F42F42" id="Fill-1"/><path d="M21.0446,5.1009 L14.9596,5.1009 L14.9596,25.1009 C14.9596,26.2529 14.7036,27.1069 14.1906,27.6639 C13.6766,28.2209 13.0136,28.4999 12.1996,28.4999 C11.3736,28.4999 10.7006,28.2179 10.1806,27.6549 C9.6616,27.0919 9.4016,26.2399 9.4016,25.1009 L9.4016,5.1009 L3.3166,5.1009 C2.3656,5.1009 1.6576,4.8909 1.1946,4.4719 C0.7316,4.0519 0.4996,3.4979 0.4996,2.8099 C0.4996,2.0959 0.7406,1.5329 1.2226,1.1199 C1.7046,0.7069 2.4026,0.4999 3.3166,0.4999 L21.0446,0.4999 C22.0086,0.4999 22.7256,0.7129 23.1946,1.1389 C23.6646,1.5639 23.8986,2.1209 23.8986,2.8099 C23.8986,3.4979 23.6616,4.0519 23.1856,4.4719 C22.7096,4.8909 21.9956,5.1009 21.0446,5.1009 L21.0446,5.1009 Z" id="Stroke-3" stroke="#330910"/><path d="M12.1992,27.0003 C11.5122,27.0003 10.9722,26.7763 10.5482,26.3153 C10.1192,25.8503 9.9012,25.1043 9.9012,24.1013 L9.9012,25.1013 C9.9012,26.1043 10.1192,26.8503 10.5482,27.3153 C10.9722,27.7763 11.5122,28.0003 12.1992,28.0003 C12.8732,28.0003 13.4042,27.7793 13.8222,27.3253 C14.2452,26.8653 14.4602,26.1173 14.4602,25.1013 L14.4602,24.1013 C14.4602,25.1173 14.2452,25.8653 13.8222,26.3253 C13.4042,26.7793 12.8732,27.0003 12.1992,27.0003" fill="#332E09" id="Fill-5" opacity="0.203766325"/><path d="M3.9339,2.1038 L9.1589,2.1038" id="Stroke-7" stroke="#FFFFFF" stroke-dasharray="1,2,6,2,3" stroke-linecap="round" stroke-linejoin="round"/></g></g></g></svg>