<?xml version="1.0" ?><svg height="32px" version="1.1" viewBox="0 0 32 32" width="32px" xmlns="http://www.w3.org/2000/svg" xmlns:xlink="http://www.w3.org/1999/xlink"><title/><desc/><defs/><g fill="none" fill-rule="evenodd" id="Page-1" stroke="none" stroke-width="1"><g id="letter-U"><g id="Page-1" transform="translate(4.000000, 2.000000)"><path d="M0.5,16.8456 L0.5,3.8246 C0.5,2.7166 0.749,1.8856 1.248,1.3306 C1.747,0.7766 2.402,0.4996 3.215,0.4996 C4.065,0.4996 4.739,0.7766 5.237,1.3306 C5.736,1.8856 5.985,2.7166 5.985,3.8246 L5.985,17.1416 C5.985,18.6556 6.155,19.9206 6.493,20.9366 C6.832,21.9526 7.432,22.7406 8.294,23.3006 C9.156,23.8606 10.363,24.1416 11.914,24.1416 C14.057,24.1416 15.571,23.5716 16.458,22.4326 C17.344,21.2936 17.788,19.5666 17.788,17.2516 L17.788,3.8246 C17.788,2.7036 18.034,1.8696 18.526,1.3216 C19.019,0.7736 19.678,0.4996 20.503,0.4996 C21.328,0.4996 21.996,0.7736 22.507,1.3216 C23.018,1.8696 23.273,2.7036 23.273,3.8246 L23.273,16.8456 C23.273,18.9636 23.067,20.7306 22.654,22.1466 C22.242,23.5626 21.463,24.8056 20.318,25.8776 C19.333,26.7886 18.188,27.4536 16.883,27.8716 C15.577,28.2906 14.051,28.4996 12.302,28.4996 C10.221,28.4996 8.43,28.2756 6.927,27.8256 C5.425,27.3766 4.2,26.6806 3.252,25.7386 C2.304,24.7966 1.608,23.5906 1.165,22.1186 C0.722,20.6476 0.5,18.8896 0.5,16.8456" fill="#F42F42" id="Fill-1"/><path d="M0.5,16.8456 L0.5,3.8246 C0.5,2.7166 0.749,1.8856 1.248,1.3306 C1.747,0.7766 2.402,0.4996 3.215,0.4996 C4.065,0.4996 4.739,0.7766 5.237,1.3306 C5.736,1.8856 5.985,2.7166 5.985,3.8246 L5.985,17.1416 C5.985,18.6556 6.155,19.9206 6.493,20.9366 C6.832,21.9526 7.432,22.7406 8.294,23.3006 C9.156,23.8606 10.363,24.1416 11.914,24.1416 C14.057,24.1416 15.571,23.5716 16.458,22.4326 C17.344,21.2936 17.788,19.5666 17.788,17.2516 L17.788,3.8246 C17.788,2.7036 18.034,1.8696 18.526,1.3216 C19.019,0.7736 19.678,0.4996 20.503,0.4996 C21.328,0.4996 21.996,0.7736 22.507,1.3216 C23.018,1.8696 23.273,2.7036 23.273,3.8246 L23.273,16.8456 C23.273,18.9636 23.067,20.7306 22.654,22.1466 C22.242,23.5626 21.463,24.8056 20.318,25.8776 C19.333,26.7886 18.188,27.4536 16.883,27.8716 C15.577,28.2906 14.051,28.4996 12.302,28.4996 C10.221,28.4996 8.43,28.2756 6.927,27.8256 C5.425,27.3766 4.2,26.6806 3.252,25.7386 C2.304,24.7966 1.608,23.5906 1.165,22.1186 C0.722,20.6476 0.5,18.8896 0.5,16.8456 L0.5,16.8456 Z" id="Stroke-3" stroke="#330910"/><path d="M2.3631,2.3343 C2.5111,2.1693 2.7291,2.0003 3.2151,2.0003" id="Stroke-5" stroke="#FFFFFF" stroke-dasharray="1,2,6,2,3" stroke-linecap="round" stroke-linejoin="round"/><path d="M19.9764,24.512 C19.0514,25.367 17.9584,26.001 16.7294,26.397 C15.4784,26.797 13.9884,27 12.3024,27 C10.2784,27 8.5184,26.781 7.0714,26.347 C5.6554,25.923 4.4884,25.263 3.6044,24.384 C2.7204,23.506 2.0614,22.36 1.6434,20.974 C1.2164,19.557 0.9994,17.831 0.9994,15.846 L0.9994,16.846 C0.9994,18.831 1.2164,20.557 1.6434,21.974 C2.0614,23.36 2.7204,24.506 3.6044,25.384 C4.4884,26.263 5.6554,26.923 7.0714,27.347 C8.5184,27.781 10.2784,28 12.3024,28 C13.9884,28 15.4784,27.797 16.7294,27.397 C17.9584,27.001 19.0514,26.367 19.9764,25.512 C21.0504,24.507 21.7894,23.327 22.1734,22.007 C22.5724,20.644 22.7734,18.908 22.7734,16.846 L22.7734,15.846 C22.7734,17.908 22.5724,19.644 22.1734,21.007 C21.7894,22.327 21.0504,23.507 19.9764,24.512" fill="#332E09" id="Fill-7" opacity="0.203766325"/></g></g></g></svg>