<?xml version="1.0" ?><svg height="32px" version="1.1" viewBox="0 0 32 32" width="32px" xmlns="http://www.w3.org/2000/svg" xmlns:xlink="http://www.w3.org/1999/xlink"><title/><desc/><defs/><g fill="none" fill-rule="evenodd" id="Page-1" stroke="none" stroke-width="1"><g id="letter-V"><g id="Page-1" transform="translate(4.000000, 2.000000)"><path d="M6.3364,4.1016 L12.4684,22.2576 L18.6184,3.9726 C18.9384,3.0116 19.1794,2.3436 19.3394,1.9686 C19.4994,1.5926 19.7634,1.2546 20.1334,0.9526 C20.5024,0.6506 21.0074,0.4996 21.6474,0.4996 C22.1154,0.4996 22.5494,0.6166 22.9494,0.8506 C23.3504,1.0846 23.6644,1.3956 23.8914,1.7836 C24.1194,2.1716 24.2334,2.5626 24.2334,2.9566 C24.2334,3.2276 24.1964,3.5196 24.1224,3.8336 C24.0484,4.1476 23.9564,4.4556 23.8454,4.7576 C23.7344,5.0586 23.6244,5.3696 23.5134,5.6896 L16.9564,23.3836 C16.7224,24.0616 16.4884,24.7046 16.2544,25.3136 C16.0204,25.9236 15.7494,26.4596 15.4424,26.9206 C15.1344,27.3826 14.7244,27.7616 14.2134,28.0566 C13.7024,28.3526 13.0774,28.4996 12.3394,28.4996 C11.6004,28.4996 10.9754,28.3556 10.4644,28.0656 C9.9534,27.7766 9.5404,27.3946 9.2274,26.9206 C8.9134,26.4466 8.6394,25.9086 8.4054,25.3046 C8.1714,24.7016 7.9374,24.0616 7.7034,23.3836 L1.2574,5.8376 C1.1464,5.5176 1.0324,5.2036 0.9154,4.8956 C0.7984,4.5876 0.7004,4.2556 0.6204,3.8986 C0.5404,3.5416 0.5004,3.2396 0.5004,2.9936 C0.5004,2.3656 0.7524,1.7926 1.2574,1.2756 C1.7624,0.7586 2.3964,0.4996 3.1594,0.4996 C4.0954,0.4996 4.7574,0.7866 5.1454,1.3586 C5.5334,1.9316 5.9304,2.8456 6.3364,4.1016" fill="#F42F42" id="Fill-1"/><path d="M6.3364,4.1016 L12.4684,22.2576 L18.6184,3.9726 C18.9384,3.0116 19.1794,2.3436 19.3394,1.9686 C19.4994,1.5926 19.7634,1.2546 20.1334,0.9526 C20.5024,0.6506 21.0074,0.4996 21.6474,0.4996 C22.1154,0.4996 22.5494,0.6166 22.9494,0.8506 C23.3504,1.0846 23.6644,1.3956 23.8914,1.7836 C24.1194,2.1716 24.2334,2.5626 24.2334,2.9566 C24.2334,3.2276 24.1964,3.5196 24.1224,3.8336 C24.0484,4.1476 23.9564,4.4556 23.8454,4.7576 C23.7344,5.0586 23.6244,5.3696 23.5134,5.6896 L16.9564,23.3836 C16.7224,24.0616 16.4884,24.7046 16.2544,25.3136 C16.0204,25.9236 15.7494,26.4596 15.4424,26.9206 C15.1344,27.3826 14.7244,27.7616 14.2134,28.0566 C13.7024,28.3526 13.0774,28.4996 12.3394,28.4996 C11.6004,28.4996 10.9754,28.3556 10.4644,28.0656 C9.9534,27.7766 9.5404,27.3946 9.2274,26.9206 C8.9134,26.4466 8.6394,25.9086 8.4054,25.3046 C8.1714,24.7016 7.9374,24.0616 7.7034,23.3836 L1.2574,5.8376 C1.1464,5.5176 1.0324,5.2036 0.9154,4.8956 C0.7984,4.5876 0.7004,4.2556 0.6204,3.8986 C0.5404,3.5416 0.5004,3.2396 0.5004,2.9936 C0.5004,2.3656 0.7524,1.7926 1.2574,1.2756 C1.7624,0.7586 2.3964,0.4996 3.1594,0.4996 C4.0954,0.4996 4.7574,0.7866 5.1454,1.3586 C5.5334,1.9316 5.9304,2.8456 6.3364,4.1016 L6.3364,4.1016 Z" id="Stroke-3" stroke="#330910"/><path d="M15.0261,25.6436 C14.7591,26.0436 14.4111,26.3646 13.9631,26.6236 C13.5321,26.8726 12.9861,26.9996 12.3391,26.9996 C11.6911,26.9996 11.1431,26.8756 10.7111,26.6306 C10.2711,26.3816 9.9121,26.0496 9.6431,25.6446 C9.3511,25.2036 7.4671,21.2916 7.4671,21.2916 L8.1761,23.2206 C8.4081,23.8926 8.6391,24.5266 8.8711,25.1236 C9.0911,25.6926 9.3511,26.2036 9.6431,26.6446 C9.9121,27.0496 10.2711,27.3816 10.7111,27.6306 C11.1431,27.8756 11.6911,27.9996 12.3391,27.9996 C12.9861,27.9996 13.5321,27.8726 13.9631,27.6236 C14.4111,27.3646 14.7591,27.0436 15.0261,26.6436 C15.3121,26.2136 15.5681,25.7056 15.7881,25.1356 C16.0201,24.5306 16.2521,23.8926 16.4871,23.2096 L17.1871,21.3206 C17.1871,21.3206 15.3121,25.2136 15.0261,25.6436" fill="#332E09" id="Fill-5" opacity="0.203766325"/><path d="M20.1936,4.4785 L17.0866,14.1245" id="Stroke-7" stroke="#FFFFFF" stroke-dasharray="1,2,6,2,3" stroke-linecap="round" stroke-linejoin="round"/></g></g></g></svg>