<?xml version="1.0" ?><svg height="32px" version="1.1" viewBox="0 0 32 32" width="32px" xmlns="http://www.w3.org/2000/svg" xmlns:xlink="http://www.w3.org/1999/xlink"><title/><desc/><g fill="none" fill-rule="evenodd" id="letter_W_red" stroke="none" stroke-width="1"><path d="M19.2433594,25.6484375 L16.0773438,9.19726562 L12.8585938,25.6484375 C12.5304671,26.8203184 12.2697275,27.6611303 12.0763672,28.1708984 C11.8830068,28.6806666 11.5460962,29.1376933 11.065625,29.5419922 C10.5851538,29.9462911 9.94648836,30.1484375 9.14960938,30.1484375 C8.5050749,30.1484375 7.97480677,30.0283215 7.55878906,29.7880859 C7.14277136,29.5478504 6.80586066,29.20801 6.54804688,28.7685547 C6.29023309,28.3290994 6.0792977,27.8076202 5.91523438,27.2041016 C5.75117105,26.6005829 5.60468814,26.0410182 5.47578125,25.5253906 L1.18671875,7.17578125 C0.928904961,6.16796371 0.8,5.40039326 0.8,4.87304688 C0.8,4.20507479 1.03437266,3.64258041 1.503125,3.18554688 C1.97187734,2.72851334 2.55194967,2.5 3.24335938,2.5 C4.19258287,2.5 4.83124836,2.80468445 5.159375,3.4140625 C5.48750164,4.02344055 5.77460814,4.90819732 6.02070313,6.06835937 L9.39570313,22.1152344 L12.175,7.03515625 C12.4562514,5.95702586 12.708202,5.13672156 12.9308594,4.57421875 C13.1535167,4.01171594 13.5167944,3.52539268 14.0207031,3.11523437 C14.5246119,2.70507607 15.2101519,2.5 16.0773438,2.5 C16.9562544,2.5 17.6388648,2.71386505 18.1251953,3.14160156 C18.6115259,3.56933808 18.9484366,4.03515373 19.1359375,4.5390625 C19.3234384,5.04297127 19.575389,5.8749942 19.8917969,7.03515625 L22.70625,22.1152344 L26.08125,6.06835937 C26.2453133,5.2831992 26.4005852,4.66797098 26.5470703,4.22265625 C26.6935554,3.77734152 26.945506,3.37890801 27.3029297,3.02734375 C27.6603533,2.67577949 28.1789029,2.5 28.8585938,2.5 C29.5382846,2.5 30.1154273,2.72558368 30.5900391,3.17675781 C31.0646508,3.62793194 31.3019531,4.19335598 31.3019531,4.87304688 C31.3019531,5.35351803 31.1730482,6.12108848 30.9152344,7.17578125 L26.6261719,25.5253906 C26.3332017,26.6972715 26.09004,27.5556613 25.8966797,28.1005859 C25.7033193,28.6455105 25.3751976,29.1230448 24.9123047,29.5332031 C24.4494117,29.9433614 23.796098,30.1484375 22.9523438,30.1484375 C22.1554648,30.1484375 21.5167993,29.9492207 21.0363281,29.5507813 C20.555857,29.1523418 20.2218759,28.7041041 20.034375,28.2060547 C19.8468741,27.7080053 19.5832048,26.8554748 19.2433594,25.6484375 Z" fill="#F42F42" fill-rule="nonzero" id="W"/><path d="M14.5990136,6.48408836 L11.4009864,16.1189116" id="Stroke-7" stroke="#FFFFFF" stroke-dasharray="1,2,6,2,3" stroke-linecap="round" stroke-linejoin="round" transform="translate(13.000000, 11.301500) rotate(-7.000000) translate(-13.000000, -11.301500) "/><path d="M5.47578125,23.5253906 C5.60468814,24.0410182 5.75117105,24.6005829 5.91523438,25.2041016 C6.0792977,25.8076202 6.29023309,26.3290994 6.54804688,26.7685547 C6.80586066,27.20801 7.14277136,27.5478504 7.55878906,27.7880859 C7.97480677,28.0283215 8.5050749,28.1484375 9.14960938,28.1484375 C9.94648836,28.1484375 10.5851538,27.9462911 11.065625,27.5419922 C11.5460962,27.1376933 11.8830068,26.6806666 12.0763672,26.1708984 C12.2697275,25.6611303 12.5304671,24.8203184 12.8585938,23.6484375 L16,10.0601577 L19.2433594,23.6484375 C19.5832048,24.8554748 19.8468741,25.7080053 20.034375,26.2060547 C20.2218759,26.7041041 20.555857,27.1523418 21.0363281,27.5507813 C21.5167993,27.9492207 22.1554648,28.1484375 22.9523438,28.1484375 C23.796098,28.1484375 24.4494117,27.9433614 24.9123047,27.5332031 C25.3751976,27.1230448 25.7033193,26.6455105 25.8966797,26.1005859 C26.09004,25.5556613 26.3332017,24.6972656 26.6261719,23.5253906 L26.6261719,25.5253906 C26.3332017,26.6972656 26.09004,27.5556613 25.8966797,28.1005859 C25.7033193,28.6455105 25.3751976,29.1230448 24.9123047,29.5332031 C24.4494117,29.9433614 23.796098,30.1484375 22.9523438,30.1484375 C22.1554648,30.1484375 21.5167993,29.9492207 21.0363281,29.5507813 C20.555857,29.1523418 20.2218759,28.7041041 20.034375,28.2060547 C19.8468741,27.7080053 19.5832048,26.8554748 19.2433594,25.6484375 L16.0773438,9.19726562 L12.8585938,25.6484375 C12.5304671,26.8203184 12.2697275,27.6611303 12.0763672,28.1708984 C11.8830068,28.6806666 11.5460962,29.1376933 11.065625,29.5419922 C10.5851538,29.9462911 9.94648836,30.1484375 9.14960938,30.1484375 C8.5050749,30.1484375 7.97480677,30.0283215 7.55878906,29.7880859 C7.14277136,29.5478504 6.80586066,29.20801 6.54804688,28.7685547 C6.29023309,28.3290994 6.0792977,27.8076202 5.91523438,27.2041016 C5.75117105,26.6005829 5.60468814,26.0410182 5.47578125,25.5253906 L5.47578125,23.5253906 Z" fill="#332E0A" id="路径" opacity="0.203766325"/><path d="M19.2433594,25.6484375 L16.0773438,9.19726563 L12.8585938,25.6484375 C12.5304671,26.8203184 12.2697275,27.6611303 12.0763672,28.1708984 C11.8830068,28.6806666 11.5460962,29.1376933 11.065625,29.5419922 C10.5851538,29.9462911 9.94648836,30.1484375 9.14960938,30.1484375 C8.5050749,30.1484375 7.97480677,30.0283215 7.55878906,29.7880859 C7.14277136,29.5478504 6.80586066,29.20801 6.54804688,28.7685547 C6.29023309,28.3290994 6.0792977,27.8076202 5.91523438,27.2041016 C5.75117105,26.6005829 5.60468814,26.0410182 5.47578125,25.5253906 L1.18671875,7.17578125 C0.928904961,6.16796371 0.8,5.40039326 0.8,4.87304688 C0.8,4.20507479 1.03437266,3.64258041 1.503125,3.18554688 C1.97187734,2.72851334 2.55194967,2.5 3.24335938,2.5 C4.19258287,2.5 4.83124836,2.80468445 5.159375,3.4140625 C5.48750164,4.02344055 5.77460814,4.90819732 6.02070313,6.06835937 L9.39570313,22.1152344 L12.175,7.03515625 C12.4562514,5.95702586 12.708202,5.13672156 12.9308594,4.57421875 C13.1535167,4.01171594 13.5167944,3.52539268 14.0207031,3.11523438 C14.5246119,2.70507607 15.2101519,2.5 16.0773438,2.5 C16.9562544,2.5 17.6388648,2.71386505 18.1251953,3.14160156 C18.6115259,3.56933808 18.9484366,4.03515373 19.1359375,4.5390625 C19.3234384,5.04297127 19.575389,5.8749942 19.8917969,7.03515625 L22.70625,22.1152344 L26.08125,6.06835937 C26.2453133,5.2831992 26.4005852,4.66797098 26.5470703,4.22265625 C26.6935554,3.77734152 26.945506,3.37890801 27.3029297,3.02734375 C27.6603533,2.67577949 28.1789029,2.5 28.8585938,2.5 C29.5382846,2.5 30.1154273,2.72558368 30.5900391,3.17675781 C31.0646508,3.62793194 31.3019531,4.19335598 31.3019531,4.87304688 C31.3019531,5.35351803 31.1730482,6.12108848 30.9152344,7.17578125 L26.6261719,25.5253906 C26.3332017,26.6972715 26.09004,27.5556613 25.8966797,28.1005859 C25.7033193,28.6455105 25.3751976,29.1230448 24.9123047,29.5332031 C24.4494117,29.9433614 23.796098,30.1484375 22.9523438,30.1484375 C22.1554648,30.1484375 21.5167993,29.9492207 21.0363281,29.5507813 C20.555857,29.1523418 20.2218759,28.7041041 20.034375,28.2060547 C19.8468741,27.7080053 19.5832048,26.8554748 19.2433594,25.6484375 Z" fill-rule="nonzero" id="W" stroke="#0A2933" stroke-linejoin="round"/></g></svg>