<?xml version="1.0" ?><svg height="32px" version="1.1" viewBox="0 0 32 32" width="32px" xmlns="http://www.w3.org/2000/svg" xmlns:xlink="http://www.w3.org/1999/xlink"><title/><desc/><defs/><g fill="none" fill-rule="evenodd" id="Page-1" stroke="none" stroke-width="1"><g id="letter-X"><g id="Page-1" transform="translate(5.000000, 2.000000)"><path d="M1.8483,22.7744 L7.9063,13.9274 L2.8083,6.0594 C2.3283,5.2964 1.9683,4.6404 1.7283,4.0924 C1.4883,3.5444 1.3683,3.0184 1.3683,2.5134 C1.3683,1.9964 1.5993,1.5314 2.0603,1.1184 C2.5223,0.7064 3.0853,0.5004 3.7503,0.5004 C4.5143,0.5004 5.1083,0.7244 5.5333,1.1744 C5.9573,1.6234 6.5453,2.4574 7.2973,3.6764 L11.3603,10.2524 L15.7003,3.6764 C16.0573,3.1224 16.3623,2.6484 16.6143,2.2544 C16.8673,1.8604 17.1103,1.5344 17.3443,1.2754 C17.5783,1.0174 17.8403,0.8234 18.1293,0.6944 C18.4183,0.5644 18.7543,0.5004 19.1363,0.5004 C19.8253,0.5004 20.3883,0.7064 20.8263,1.1184 C21.2633,1.5314 21.4813,2.0204 21.4813,2.5874 C21.4813,3.4124 21.0073,4.5324 20.0593,5.9484 L14.7213,13.9274 L20.4653,22.7744 C20.9833,23.5504 21.3583,24.1934 21.5923,24.7044 C21.8263,25.2154 21.9433,25.6984 21.9433,26.1544 C21.9433,26.5854 21.8383,26.9794 21.6293,27.3364 C21.4203,27.6934 21.1243,27.9764 20.7423,28.1864 C20.3613,28.3954 19.9303,28.5004 19.4503,28.5004 C18.9323,28.5004 18.4953,28.3924 18.1383,28.1764 C17.7813,27.9614 17.4923,27.6934 17.2703,27.3734 C17.0493,27.0534 16.6363,26.4314 16.0333,25.5084 L11.2683,18.0094 L6.2073,25.7294 C5.8133,26.3454 5.5333,26.7764 5.3663,27.0224 C5.2003,27.2684 5.0003,27.5084 4.7663,27.7424 C4.5323,27.9764 4.2553,28.1614 3.9353,28.2964 C3.6153,28.4324 3.2393,28.5004 2.8083,28.5004 C2.1443,28.5004 1.5933,28.2964 1.1553,27.8904 C0.7183,27.4844 0.5003,26.8934 0.5003,26.1174 C0.5003,25.2064 0.9493,24.0924 1.8483,22.7744" fill="#F42F42" id="Fill-1"/><path d="M1.8483,22.7744 L7.9063,13.9274 L2.8083,6.0594 C2.3283,5.2964 1.9683,4.6404 1.7283,4.0924 C1.4883,3.5444 1.3683,3.0184 1.3683,2.5134 C1.3683,1.9964 1.5993,1.5314 2.0603,1.1184 C2.5223,0.7064 3.0853,0.5004 3.7503,0.5004 C4.5143,0.5004 5.1083,0.7244 5.5333,1.1744 C5.9573,1.6234 6.5453,2.4574 7.2973,3.6764 L11.3603,10.2524 L15.7003,3.6764 C16.0573,3.1224 16.3623,2.6484 16.6143,2.2544 C16.8673,1.8604 17.1103,1.5344 17.3443,1.2754 C17.5783,1.0174 17.8403,0.8234 18.1293,0.6944 C18.4183,0.5644 18.7543,0.5004 19.1363,0.5004 C19.8253,0.5004 20.3883,0.7064 20.8263,1.1184 C21.2633,1.5314 21.4813,2.0204 21.4813,2.5874 C21.4813,3.4124 21.0073,4.5324 20.0593,5.9484 L14.7213,13.9274 L20.4653,22.7744 C20.9833,23.5504 21.3583,24.1934 21.5923,24.7044 C21.8263,25.2154 21.9433,25.6984 21.9433,26.1544 C21.9433,26.5854 21.8383,26.9794 21.6293,27.3364 C21.4203,27.6934 21.1243,27.9764 20.7423,28.1864 C20.3613,28.3954 19.9303,28.5004 19.4503,28.5004 C18.9323,28.5004 18.4953,28.3924 18.1383,28.1764 C17.7813,27.9614 17.4923,27.6934 17.2703,27.3734 C17.0493,27.0534 16.6363,26.4314 16.0333,25.5084 L11.2683,18.0094 L6.2073,25.7294 C5.8133,26.3454 5.5333,26.7764 5.3663,27.0224 C5.2003,27.2684 5.0003,27.5084 4.7663,27.7424 C4.5323,27.9764 4.2553,28.1614 3.9353,28.2964 C3.6153,28.4324 3.2393,28.5004 2.8083,28.5004 C2.1443,28.5004 1.5933,28.2964 1.1553,27.8904 C0.7183,27.4844 0.5003,26.8934 0.5003,26.1174 C0.5003,25.2064 0.9493,24.0924 1.8483,22.7744 L1.8483,22.7744 Z" id="Stroke-3" stroke="#330910"/><path d="M3.7402,26.8369 C3.4842,26.9449 3.1712,26.9999 2.8082,26.9999 C2.2692,26.9999 1.8402,26.8449 1.4962,26.5249 C1.2682,26.3129 1.1262,26.0249 1.0552,25.6659 C1.0292,25.8199 1.0002,25.9769 1.0002,26.1169 C1.0002,26.7539 1.1622,27.2139 1.4962,27.5239 C1.8402,27.8449 2.2692,27.9999 2.8082,27.9999 C3.1712,27.9999 3.4842,27.9449 3.7402,27.8369 C4.0002,27.7269 4.2262,27.5759 4.4122,27.3899 C4.6232,27.1789 4.8052,26.9609 4.9522,26.7419 C5.1172,26.4979 5.3952,26.0699 5.7892,25.4549 L6.4342,24.4709 C6.4342,24.4709 5.1922,26.3799 3.7402,26.8369 M15.8272,24.2519 L16.4512,25.2339 C17.0512,26.1519 17.4612,26.7709 17.6812,27.0889 C17.8642,27.3529 18.0982,27.5679 18.3972,27.7489 C18.6732,27.9149 19.0272,27.9999 19.4492,27.9999 C19.8482,27.9999 20.1932,27.9169 20.5022,27.7469 C20.8062,27.5809 21.0332,27.3629 21.1982,27.0829 C21.3632,26.8019 21.4432,26.4979 21.4432,26.1539 C21.4432,25.9949 21.4152,25.8239 21.3782,25.6519 C21.3382,25.8019 21.2792,25.9459 21.1982,26.0829 C21.0332,26.3629 20.8062,26.5809 20.5022,26.7469 C20.1932,26.9169 19.8482,26.9999 19.4492,26.9999 C19.0272,26.9999 18.6732,26.9149 18.3972,26.7489 C16.9372,25.9759 15.8272,24.2519 15.8272,24.2519" fill="#332E09" id="Fill-5" opacity="0.203766325"/><path d="M18.2915,2.8437 L14.0415,9.4057" id="Stroke-7" stroke="#FFFFFF" stroke-dasharray="1,2,6,2,3" stroke-linecap="round" stroke-linejoin="round"/></g></g></g></svg>