<?xml version="1.0" ?><svg height="32px" version="1.1" viewBox="0 0 32 32" width="32px" xmlns="http://www.w3.org/2000/svg" xmlns:xlink="http://www.w3.org/1999/xlink"><title/><desc/><defs/><g fill="none" fill-rule="evenodd" id="Page-1" stroke="none" stroke-width="1"><g id="letter-Z"><g id="Page-1" transform="translate(3.000000, 2.000000)"><path d="M2.5818,21.9679 L16.9638,4.7589 L4.6068,4.7589 C3.7408,4.7589 3.0878,4.5679 2.6488,4.1859 C2.2098,3.8039 1.9898,3.3009 1.9898,2.6769 C1.9898,2.0279 2.2098,1.5029 2.6488,1.1019 C3.0878,0.7009 3.7408,0.4999 4.6068,0.4999 L20.5358,0.4999 C22.5978,0.4999 23.6298,1.4609 23.6298,3.3839 C23.6298,4.3009 23.4578,5.0329 23.1138,5.5809 C22.7698,6.1279 22.0758,7.0129 21.0318,8.2349 L7.5858,24.2409 L22.4068,24.2409 C23.2858,24.2409 23.9418,24.4219 24.3748,24.7849 C24.8078,25.1479 25.0238,25.6539 25.0238,26.3039 C25.0238,26.9779 24.8078,27.5129 24.3748,27.9079 C23.9418,28.3029 23.2858,28.4999 22.4068,28.4999 L4.2248,28.4999 C2.9888,28.4999 2.0598,28.2229 1.4358,27.6689 C0.8118,27.1149 0.4998,26.3739 0.4998,25.4439 C0.4998,25.1259 0.5508,24.8329 0.6528,24.5659 C0.7548,24.2979 0.8918,24.0469 1.0638,23.8109 C1.2348,23.5759 1.4738,23.2759 1.7798,22.9129 C2.0848,22.5509 2.3528,22.2349 2.5818,21.9679" fill="#F42F42" id="Fill-1"/><path d="M2.5818,21.9679 L16.9638,4.7589 L4.6068,4.7589 C3.7408,4.7589 3.0878,4.5679 2.6488,4.1859 C2.2098,3.8039 1.9898,3.3009 1.9898,2.6769 C1.9898,2.0279 2.2098,1.5029 2.6488,1.1019 C3.0878,0.7009 3.7408,0.4999 4.6068,0.4999 L20.5358,0.4999 C22.5978,0.4999 23.6298,1.4609 23.6298,3.3839 C23.6298,4.3009 23.4578,5.0329 23.1138,5.5809 C22.7698,6.1279 22.0758,7.0129 21.0318,8.2349 L7.5858,24.2409 L22.4068,24.2409 C23.2858,24.2409 23.9418,24.4219 24.3748,24.7849 C24.8078,25.1479 25.0238,25.6539 25.0238,26.3039 C25.0238,26.9779 24.8078,27.5129 24.3748,27.9079 C23.9418,28.3029 23.2858,28.4999 22.4068,28.4999 L4.2248,28.4999 C2.9888,28.4999 2.0598,28.2229 1.4358,27.6689 C0.8118,27.1149 0.4998,26.3739 0.4998,25.4439 C0.4998,25.1259 0.5508,24.8329 0.6528,24.5659 C0.7548,24.2979 0.8918,24.0469 1.0638,23.8109 C1.2348,23.5759 1.4738,23.2759 1.7798,22.9129 C2.0848,22.5509 2.3528,22.2349 2.5818,21.9679 L2.5818,21.9679 Z" id="Stroke-3" stroke="#330910"/><path d="M24.4557,25.8177 C24.3817,26.1047 24.2487,26.3467 24.0377,26.5377 C23.7017,26.8447 23.1537,26.9997 22.4077,26.9997 L4.2247,26.9997 C3.1217,26.9997 2.2937,26.7627 1.7677,26.2957 C1.3817,25.9527 1.1447,25.5277 1.0487,25.0067 C1.0197,25.1447 0.9997,25.2897 0.9997,25.4437 C0.9997,26.2307 1.2507,26.8367 1.7677,27.2957 C2.2937,27.7627 3.1217,27.9997 4.2247,27.9997 L22.4077,27.9997 C23.1537,27.9997 23.7017,27.8447 24.0377,27.5377 C24.3647,27.2407 24.5237,26.8367 24.5237,26.3037 C24.5237,26.1237 24.4967,25.9657 24.4557,25.8177" fill="#332E09" id="Fill-5" opacity="0.203766325"/><path d="M5.8801,2.1458 L13.9631,2.1458" id="Stroke-7" stroke="#FFFFFF" stroke-dasharray="1,2,6,2,3" stroke-linecap="round" stroke-linejoin="round"/></g></g></g></svg>