<?xml version="1.0" ?><svg height="32px" version="1.1" viewBox="0 0 32 32" width="32px" xmlns="http://www.w3.org/2000/svg" xmlns:xlink="http://www.w3.org/1999/xlink"><title/><desc/><defs/><g fill="none" fill-rule="evenodd" id="Page-1" stroke="none" stroke-width="1"><g id="letter-C"><g id="Page-1" transform="translate(4.000000, 2.000000)"><path d="M24.6398,19.4868 C24.6398,20.3488 24.4278,21.2818 24.0028,22.2848 C23.5778,23.2888 22.9098,24.2738 21.9988,25.2398 C21.0878,26.2068 19.9238,26.9918 18.5078,27.5948 C17.0918,28.1988 15.4418,28.4998 13.5578,28.4998 C12.1298,28.4998 10.8308,28.3648 9.6608,28.0938 C8.4908,27.8228 7.4288,27.4008 6.4748,26.8288 C5.5208,26.2558 4.6438,25.5018 3.8428,24.5658 C3.1288,23.7168 2.5198,22.7648 2.0148,21.7128 C1.5098,20.6598 1.1308,19.5358 0.8788,18.3418 C0.6258,17.1478 0.4998,15.8788 0.4998,14.5368 C0.4998,12.3578 0.8168,10.4058 1.4508,8.6818 C2.0848,6.9578 2.9938,5.4838 4.1758,4.2588 C5.3578,3.0338 6.7428,2.1008 8.3308,1.4608 C9.9198,0.8198 11.6128,0.4998 13.4098,0.4998 C15.6018,0.4998 17.5538,0.9368 19.2648,1.8118 C20.9768,2.6858 22.2878,3.7658 23.1988,5.0528 C24.1108,6.3398 24.5658,7.5558 24.5658,8.7008 C24.5658,9.3288 24.3438,9.8828 23.9008,10.3628 C23.4578,10.8428 22.9218,11.0828 22.2938,11.0828 C21.5918,11.0828 21.0658,10.9168 20.7148,10.5848 C20.3638,10.2518 19.9728,9.6798 19.5418,8.8668 C18.8278,7.5248 17.9878,6.5208 17.0208,5.8558 C16.0548,5.1908 14.8628,4.8588 13.4468,4.8588 C11.1938,4.8588 9.3988,5.7148 8.0628,7.4258 C6.7278,9.1378 6.0598,11.5698 6.0598,14.7218 C6.0598,16.8268 6.3548,18.5788 6.9458,19.9758 C7.5368,21.3738 8.3738,22.4178 9.4578,23.1068 C10.5408,23.7968 11.8098,24.1408 13.2628,24.1408 C14.8388,24.1408 16.1718,23.7498 17.2608,22.9688 C18.3508,22.1868 19.1728,21.0378 19.7268,19.5238 C19.9608,18.8098 20.2498,18.2278 20.5948,17.7788 C20.9398,17.3288 21.4938,17.1038 22.2568,17.1038 C22.9098,17.1038 23.4698,17.3318 23.9378,17.7878 C24.4058,18.2428 24.6398,18.8098 24.6398,19.4868" fill="#F42F42" id="Fill-1"/><path d="M24.6398,19.4868 C24.6398,20.3488 24.4278,21.2818 24.0028,22.2848 C23.5778,23.2888 22.9098,24.2738 21.9988,25.2398 C21.0878,26.2068 19.9238,26.9918 18.5078,27.5948 C17.0918,28.1988 15.4418,28.4998 13.5578,28.4998 C12.1298,28.4998 10.8308,28.3648 9.6608,28.0938 C8.4908,27.8228 7.4288,27.4008 6.4748,26.8288 C5.5208,26.2558 4.6438,25.5018 3.8428,24.5658 C3.1288,23.7168 2.5198,22.7648 2.0148,21.7128 C1.5098,20.6598 1.1308,19.5358 0.8788,18.3418 C0.6258,17.1478 0.4998,15.8788 0.4998,14.5368 C0.4998,12.3578 0.8168,10.4058 1.4508,8.6818 C2.0848,6.9578 2.9938,5.4838 4.1758,4.2588 C5.3578,3.0338 6.7428,2.1008 8.3308,1.4608 C9.9198,0.8198 11.6128,0.4998 13.4098,0.4998 C15.6018,0.4998 17.5538,0.9368 19.2648,1.8118 C20.9768,2.6858 22.2878,3.7658 23.1988,5.0528 C24.1108,6.3398 24.5658,7.5558 24.5658,8.7008 C24.5658,9.3288 24.3438,9.8828 23.9008,10.3628 C23.4578,10.8428 22.9218,11.0828 22.2938,11.0828 C21.5918,11.0828 21.0658,10.9168 20.7148,10.5848 C20.3638,10.2518 19.9728,9.6798 19.5418,8.8668 C18.8278,7.5248 17.9878,6.5208 17.0208,5.8558 C16.0548,5.1908 14.8628,4.8588 13.4468,4.8588 C11.1938,4.8588 9.3988,5.7148 8.0628,7.4258 C6.7278,9.1378 6.0598,11.5698 6.0598,14.7218 C6.0598,16.8268 6.3548,18.5788 6.9458,19.9758 C7.5368,21.3738 8.3738,22.4178 9.4578,23.1068 C10.5408,23.7968 11.8098,24.1408 13.2628,24.1408 C14.8388,24.1408 16.1718,23.7498 17.2608,22.9688 C18.3508,22.1868 19.1728,21.0378 19.7268,19.5238 C19.9608,18.8098 20.2498,18.2278 20.5948,17.7788 C20.9398,17.3288 21.4938,17.1038 22.2568,17.1038 C22.9098,17.1038 23.4698,17.3318 23.9378,17.7878 C24.4058,18.2428 24.6398,18.8098 24.6398,19.4868 L24.6398,19.4868 Z" id="Stroke-3" stroke="#330910"/><path d="M2.859,9.1992 C3.418,7.6792 4.224,6.3682 5.255,5.3012 C6.284,4.2332 7.507,3.4092 8.892,2.8512" id="Stroke-5" stroke="#FFFFFF" stroke-dasharray="1,2,6,2,3" stroke-linecap="round" stroke-linejoin="round"/><path d="M24.1026,19.0883 C24.0276,19.7143 23.8406,20.3853 23.5426,21.0903 C23.1426,22.0343 22.5006,22.9783 21.6346,23.8973 C20.7766,24.8073 19.6586,25.5603 18.3126,26.1343 C16.9646,26.7093 15.3656,27.0003 13.5586,27.0003 C12.1756,27.0003 10.9026,26.8673 9.7736,26.6063 C8.6606,26.3493 7.6376,25.9433 6.7316,25.3993 C5.8286,24.8573 4.9836,24.1313 4.2226,23.2413 C3.5406,22.4293 2.9486,21.5053 2.4656,20.4963 C1.9806,19.4833 1.6106,18.3863 1.3676,17.2383 C1.1516,16.2163 1.0466,15.1143 1.0216,13.9733 C1.0166,14.1623 1.0006,14.3443 1.0006,14.5373 C1.0006,15.8393 1.1236,17.0843 1.3676,18.2383 C1.6106,19.3863 1.9806,20.4833 2.4656,21.4963 C2.9486,22.5053 3.5406,23.4293 4.2226,24.2413 C4.9836,25.1313 5.8286,25.8573 6.7316,26.3993 C7.6376,26.9433 8.6606,27.3493 9.7736,27.6063 C10.9026,27.8673 12.1756,28.0003 13.5586,28.0003 C15.3656,28.0003 16.9646,27.7093 18.3126,27.1343 C19.6586,26.5603 20.7766,25.8073 21.6346,24.8973 C22.5006,23.9783 23.1426,23.0343 23.5426,22.0903 C23.9386,21.1533 24.1396,20.2773 24.1396,19.4863 C24.1396,19.3463 24.1266,19.2143 24.1026,19.0883" fill="#332E09" id="Fill-7" opacity="0.203766325"/></g></g></g></svg>