<?xml version="1.0" ?><svg height="32px" version="1.1" viewBox="0 0 32 32" width="32px" xmlns="http://www.w3.org/2000/svg" xmlns:xlink="http://www.w3.org/1999/xlink"><title/><desc/><defs/><g fill="none" fill-rule="evenodd" id="Page-1" stroke="none" stroke-width="1"><g id="letter-I"><g id="Page-1" transform="translate(13.000000, 2.000000)"><path d="M0.5,25.157 L0.5,3.825 C0.5,2.716 0.752,1.885 1.257,1.331 C1.762,0.777 2.415,0.5 3.215,0.5 C4.04,0.5 4.708,0.774 5.219,1.322 C5.73,1.87 5.985,2.704 5.985,3.825 L5.985,25.157 C5.985,26.277 5.73,27.115 5.219,27.669 C4.708,28.223 4.04,28.5 3.215,28.5 C2.427,28.5 1.777,28.22 1.266,27.66 C0.755,27.099 0.5,26.265 0.5,25.157" fill="#F42F42" id="Fill-1"/><path d="M0.5,25.157 L0.5,3.825 C0.5,2.716 0.752,1.885 1.257,1.331 C1.762,0.777 2.415,0.5 3.215,0.5 C4.04,0.5 4.708,0.774 5.219,1.322 C5.73,1.87 5.985,2.704 5.985,3.825 L5.985,25.157 C5.985,26.277 5.73,27.115 5.219,27.669 C4.708,28.223 4.04,28.5 3.215,28.5 C2.427,28.5 1.777,28.22 1.266,27.66 C0.755,27.099 0.5,26.265 0.5,25.157 L0.5,25.157 Z" id="Stroke-3" stroke="#330910"/><path d="M2.3667,2.3405 C2.5197,2.1725 2.7417,1.9995 3.2147,1.9995 C3.7307,1.9995 3.9627,2.1745 4.1227,2.3455" id="Stroke-5" stroke="#FFFFFF" stroke-dasharray="1,2,6,2,3" stroke-linecap="round" stroke-linejoin="round"/><path d="M3.2148,26.9997 C2.5688,26.9997 2.0518,26.7777 1.6358,26.3227 C1.2138,25.8597 0.9998,25.1317 0.9998,24.1567 L0.9998,25.1567 C0.9998,26.1317 1.2138,26.8597 1.6358,27.3227 C2.0518,27.7777 2.5688,27.9997 3.2148,27.9997 C3.9008,27.9997 4.4358,27.7807 4.8518,27.3297 C5.2718,26.8737 5.4858,26.1437 5.4858,25.1567 L5.4858,24.1567 C5.4858,25.1437 5.2718,25.8737 4.8518,26.3297 C4.4358,26.7807 3.9008,26.9997 3.2148,26.9997" fill="#332E09" id="Fill-7" opacity="0.203766325"/></g></g></g></svg>