<?xml version="1.0" ?><!DOCTYPE svg  PUBLIC '-//W3C//DTD SVG 1.1//EN'  'http://www.w3.org/Graphics/SVG/1.1/DTD/svg11.dtd'><svg enable-background="new 0 0 128 128" version="1.1" viewBox="0 0 128 128" xml:space="preserve" xmlns="http://www.w3.org/2000/svg" xmlns:xlink="http://www.w3.org/1999/xlink"><g id="Layer_1"><rect fill="#F4F5F5" height="1520" opacity="0" width="727.938" x="-219.984" y="-731"/></g><g id="Layer_2"><g><circle cx="64" cy="64" fill="#49525F" r="64"/><g><defs><circle cx="64" cy="64" id="SVGID_69_" r="64"/></defs><clipPath id="SVGID_2_"><use overflow="visible" xlink:href="#SVGID_69_"/></clipPath><polygon clip-path="url(#SVGID_2_)" fill="#384451" points="59.799,34.281 63.009,37.491 54.844,46.322 58.386,49.864      48.844,58.322 52.136,61.614 41.844,70.322 44.969,73.447 35.971,82.445 39.055,85.529 29.882,94.358 63.522,127.998 128,128      128,85.333 68.401,25.931    "/></g><path d="M94,96H34c-3.314,0-6-2.686-6-6v0c0-3.314,2.686-6,6-6h60c3.314,0,6,2.686,6,6v0    C100,93.314,97.314,96,94,96z" fill="#A288BF"/><path d="M88,84H40c-3.314,0-6-2.686-6-6v0c0-3.314,2.686-6,6-6h48c3.314,0,6,2.686,6,6v0    C94,81.314,91.314,84,88,84z" fill="#5CA3D8"/><path d="M82,72H46c-3.314,0-6-2.686-6-6v0c0-3.314,2.686-6,6-6h36c3.314,0,6,2.686,6,6v0    C88,69.314,85.314,72,82,72z" fill="#A4CD39"/><path d="M75,60H53c-3.314,0-6-2.686-6-6v0c0-3.314,2.686-6,6-6h22c3.314,0,6,2.686,6,6v0    C81,57.314,78.314,60,75,60z" fill="#FFD330"/><path d="M69,48H59c-3.314,0-6-2.686-6-6v0c0-3.314,2.686-6,6-6h10c3.314,0,6,2.686,6,6v0    C75,45.314,72.314,48,69,48z" fill="#F7991C"/><circle cx="64" cy="30" fill="#F05F22" r="6"/><path d="M58,30c0,2.72,1.811,5.013,4.291,5.75C61.511,34.485,61,32.383,61,30c0-2.383,0.511-4.485,1.291-5.75    C59.811,24.987,58,27.28,58,30z" fill="#F58C4F"/><path d="M65.709,24.25C66.489,25.515,67,27.617,67,30c0,2.383-0.511,4.485-1.291,5.75    C68.189,35.013,70,32.72,70,30C70,27.28,68.189,24.987,65.709,24.25z" fill="#DD4726"/><g><defs><path d="M94,96H34c-3.314,0-6-2.686-6-6v0c0-3.314,2.686-6,6-6h60c3.314,0,6,2.686,6,6v0      C100,93.314,97.314,96,94,96z" id="SVGID_71_"/></defs><clipPath id="SVGID_4_"><use overflow="visible" xlink:href="#SVGID_71_"/></clipPath><rect clip-path="url(#SVGID_4_)" fill="#8B71B2" height="11.5" width="77.75" x="24.5" y="90"/></g><g><defs><path d="M88,84H40c-3.314,0-6-2.686-6-6v0c0-3.314,2.686-6,6-6h48c3.314,0,6,2.686,6,6v0      C94,81.314,91.314,84,88,84z" id="SVGID_73_"/></defs><clipPath id="SVGID_6_"><use overflow="visible" xlink:href="#SVGID_73_"/></clipPath><rect clip-path="url(#SVGID_6_)" fill="#4992CE" height="8.375" width="65" x="31.5" y="78"/></g><g><defs><path d="M82,72H46c-3.314,0-6-2.686-6-6v0c0-3.314,2.686-6,6-6h36c3.314,0,6,2.686,6,6v0      C88,69.314,85.314,72,82,72z" id="SVGID_75_"/></defs><clipPath id="SVGID_8_"><use overflow="visible" xlink:href="#SVGID_75_"/></clipPath><rect clip-path="url(#SVGID_8_)" fill="#91BE3E" height="8.375" width="54.101" x="36.95" y="66"/></g><g><defs><path d="M75,60H53c-3.314,0-6-2.686-6-6v0c0-3.314,2.686-6,6-6h22c3.314,0,6,2.686,6,6v0      C81,57.314,78.314,60,75,60z" id="SVGID_77_"/></defs><clipPath id="SVGID_10_"><use overflow="visible" xlink:href="#SVGID_77_"/></clipPath><rect clip-path="url(#SVGID_10_)" fill="#F8BB15" height="8.375" width="40.627" x="43.687" y="54"/></g><g><defs><path d="M69,48H59c-3.314,0-6-2.686-6-6v0c0-3.314,2.686-6,6-6h10c3.314,0,6,2.686,6,6v0      C75,45.314,72.314,48,69,48z" id="SVGID_79_"/></defs><clipPath id="SVGID_12_"><use overflow="visible" xlink:href="#SVGID_79_"/></clipPath><rect clip-path="url(#SVGID_12_)" fill="#EF8622" height="8.375" width="25.489" x="51.255" y="42"/></g><path d="M31,90c0-3.314,2.686-6,6-6h-3c-3.314,0-6,2.686-6,6s2.686,6,6,6h3    C33.686,96,31,93.314,31,90z" fill="#CAB7D9" opacity="0.4"/><path d="M97,90c0-3.314-2.686-6-6-6h3c3.314,0,6,2.686,6,6s-2.686,6-6,6h-3    C94.314,96,97,93.314,97,90z" fill="#6A3493" opacity="0.3"/><path d="M91,78c0-3.314-2.686-6-6-6h3c3.314,0,6,2.686,6,6s-2.686,6-6,6h-3    C88.314,84,91,81.314,91,78z" fill="#1669B2" opacity="0.3"/><path d="M85,66c0-3.314-2.686-6-6-6h3c3.314,0,6,2.686,6,6c0,3.314-2.686,6-6,6h-3    C82.314,72,85,69.314,85,66z" fill="#509141" opacity="0.3"/><path d="M78,54c0-3.314-2.686-6-6-6h3c3.314,0,6,2.686,6,6s-2.686,6-6,6h-3    C75.314,60,78,57.314,78,54z" fill="#D96A27" opacity="0.3"/><path d="M72,42c0-3.314-2.686-6-6-6h3c3.314,0,6,2.686,6,6s-2.686,6-6,6h-3    C69.314,48,72,45.314,72,42z" fill="#D02D27" opacity="0.3"/><path d="M37,78c0-3.314,2.686-6,6-6h-3c-3.314,0-6,2.686-6,6s2.686,6,6,6h3    C39.686,84,37,81.314,37,78z" fill="#DBF1FA" opacity="0.3"/><path d="M43,66c0-3.314,2.686-6,6-6h-3c-3.314,0-6,2.686-6,6c0,3.314,2.686,6,6,6h3    C45.686,72,43,69.314,43,66z" fill="#F2F5D8" opacity="0.3"/><path d="M50,54c0-3.314,2.686-6,6-6h-3c-3.314,0-6,2.686-6,6s2.686,6,6,6h3    C52.686,60,50,57.314,50,54z" fill="#FFF5D9" opacity="0.5"/><path d="M56,42c0-3.314,2.686-6,6-6h-3c-3.314,0-6,2.686-6,6s2.686,6,6,6h3    C58.686,48,56,45.314,56,42z" fill="#FFD18B" opacity="0.5"/></g></g></svg>