<?xml version="1.0" ?><svg height="32px" version="1.1" viewBox="0 0 32 32" width="32px" xmlns="http://www.w3.org/2000/svg" xmlns:xlink="http://www.w3.org/1999/xlink"><title/><desc/><defs/><g fill="none" fill-rule="evenodd" id="Page-1" stroke="none" stroke-width="1"><g id="letter-Q"><g id="Page-1" transform="translate(3.000000, 2.000000)"><path d="M17.9613,20.2515 C18.6733,19.4365 19.1983,18.4725 19.5373,17.3585 C19.8753,16.2445 20.0453,14.9535 20.0453,13.4835 C20.0453,11.6355 19.7463,10.0345 19.1493,8.6795 C18.5523,7.3245 17.7003,6.3005 16.5923,5.6055 C15.4843,4.9115 14.2133,4.5635 12.7783,4.5635 C11.7563,4.5635 10.8123,4.7565 9.9453,5.1405 C9.0783,5.5255 8.3323,6.0855 7.7063,6.8195 C7.0813,7.5545 6.5873,8.4925 6.2253,9.6355 C5.8643,10.7775 5.6833,12.0605 5.6833,13.4835 C5.6833,16.3885 6.3603,18.6245 7.7153,20.1915 C9.0703,21.7585 10.7803,22.5415 12.8473,22.5415 C13.6963,22.5415 14.5693,22.3635 15.4643,22.0075 C14.9253,21.6065 14.2503,21.2045 13.4413,20.8025 C12.6313,20.4005 12.0773,20.0905 11.7793,19.8725 C11.4803,19.6545 11.3313,19.3445 11.3313,18.9425 C11.3313,18.5985 11.4753,18.2945 11.7623,18.0305 C12.0493,17.7665 12.3643,17.6345 12.7093,17.6345 C13.7543,17.6345 15.5043,18.5065 17.9613,20.2515 M21.9733,23.0415 C22.7193,23.5465 23.5353,24.0375 24.4193,24.5135 C25.3033,24.9895 25.8883,25.3685 26.1753,25.6505 C26.4623,25.9315 26.6063,26.3305 26.6063,26.8465 C26.6063,27.2145 26.4363,27.5815 26.0983,27.9485 C25.7593,28.3165 25.3483,28.4995 24.8663,28.4995 C24.4763,28.4995 24.0023,28.3735 23.4463,28.1215 C22.8893,27.8685 22.2343,27.5015 21.4833,27.0195 C20.7313,26.5365 19.9073,25.9745 19.0113,25.3315 C17.3473,26.1805 15.3033,26.6055 12.8813,26.6055 C10.9183,26.6055 9.1593,26.2925 7.6033,25.6675 C6.0483,25.0415 4.7423,24.1405 3.6853,22.9635 C2.6293,21.7865 1.8343,20.3895 1.3003,18.7705 C0.7673,17.1515 0.5003,15.3895 0.5003,13.4835 C0.5003,11.5435 0.7783,9.7645 1.3353,8.1455 C1.8923,6.5275 2.6983,5.1495 3.7543,4.0125 C4.8113,2.8765 6.0963,2.0065 7.6123,1.4045 C9.1273,0.8015 10.8493,0.4995 12.7783,0.4995 C15.3953,0.4995 17.6423,1.0305 19.5193,2.0925 C21.3963,3.1545 22.8173,4.6645 23.7813,6.6215 C24.7463,8.5795 25.2283,10.8775 25.2283,13.5185 C25.2283,17.5245 24.1433,20.6995 21.9733,23.0415" fill="#F42F42" id="Fill-1"/><path d="M17.9613,20.2515 C18.6733,19.4365 19.1983,18.4725 19.5373,17.3585 C19.8753,16.2445 20.0453,14.9535 20.0453,13.4835 C20.0453,11.6355 19.7463,10.0345 19.1493,8.6795 C18.5523,7.3245 17.7003,6.3005 16.5923,5.6055 C15.4843,4.9115 14.2133,4.5635 12.7783,4.5635 C11.7563,4.5635 10.8123,4.7565 9.9453,5.1405 C9.0783,5.5255 8.3323,6.0855 7.7063,6.8195 C7.0813,7.5545 6.5873,8.4925 6.2253,9.6355 C5.8643,10.7775 5.6833,12.0605 5.6833,13.4835 C5.6833,16.3885 6.3603,18.6245 7.7153,20.1915 C9.0703,21.7585 10.7803,22.5415 12.8473,22.5415 C13.6963,22.5415 14.5693,22.3635 15.4643,22.0075 C14.9253,21.6065 14.2503,21.2045 13.4413,20.8025 C12.6313,20.4005 12.0773,20.0905 11.7793,19.8725 C11.4803,19.6545 11.3313,19.3445 11.3313,18.9425 C11.3313,18.5985 11.4753,18.2945 11.7623,18.0305 C12.0493,17.7665 12.3643,17.6345 12.7093,17.6345 C13.7543,17.6345 15.5043,18.5065 17.9613,20.2515 L17.9613,20.2515 Z M21.9733,23.0415 C22.7193,23.5465 23.5353,24.0375 24.4193,24.5135 C25.3033,24.9895 25.8883,25.3685 26.1753,25.6505 C26.4623,25.9315 26.6063,26.3305 26.6063,26.8465 C26.6063,27.2145 26.4363,27.5815 26.0983,27.9485 C25.7593,28.3165 25.3483,28.4995 24.8663,28.4995 C24.4763,28.4995 24.0023,28.3735 23.4463,28.1215 C22.8893,27.8685 22.2343,27.5015 21.4833,27.0195 C20.7313,26.5365 19.9073,25.9745 19.0113,25.3315 C17.3473,26.1805 15.3033,26.6055 12.8813,26.6055 C10.9183,26.6055 9.1593,26.2925 7.6033,25.6675 C6.0483,25.0415 4.7423,24.1405 3.6853,22.9635 C2.6293,21.7865 1.8343,20.3895 1.3003,18.7705 C0.7673,17.1515 0.5003,15.3895 0.5003,13.4835 C0.5003,11.5435 0.7783,9.7645 1.3353,8.1455 C1.8923,6.5275 2.6983,5.1495 3.7543,4.0125 C4.8113,2.8765 6.0963,2.0065 7.6123,1.4045 C9.1273,0.8015 10.8493,0.4995 12.7783,0.4995 C15.3953,0.4995 17.6423,1.0305 19.5193,2.0925 C21.3963,3.1545 22.8173,4.6645 23.7813,6.6215 C24.7463,8.5795 25.2283,10.8775 25.2283,13.5185 C25.2283,17.5245 24.1433,20.6995 21.9733,23.0415 L21.9733,23.0415 Z" id="Stroke-3" stroke="#330910"/><path d="M2.7537,8.6344 C3.2387,7.2214 3.9457,6.0104 4.8537,5.0344 C5.7527,4.0674 6.8667,3.3144 8.1667,2.7974" id="Stroke-5" stroke="#FFFFFF" stroke-dasharray="1,2,6,2,3" stroke-linecap="round" stroke-linejoin="round"/><path d="M25.9794,26.2605 C25.9174,26.3745 25.8404,26.4905 25.7304,26.6105 C25.4854,26.8755 25.2104,26.9995 24.8664,26.9995 C24.5494,26.9995 24.1414,26.8875 23.6534,26.6655 C23.1204,26.4245 22.4814,26.0665 21.7524,25.5985 C21.0114,25.1225 20.1874,24.5605 19.3034,23.9255 L19.0554,23.7475 L18.7844,23.8865 C17.1984,24.6955 15.2124,25.1065 12.8814,25.1065 C10.9934,25.1065 9.2804,24.8025 7.7894,24.2035 C6.3134,23.6105 5.0584,22.7435 4.0584,21.6295 C3.0534,20.5105 2.2854,19.1585 1.7754,17.6135 C1.3084,16.1985 1.0624,14.6415 1.0184,12.9905 C1.0134,13.1565 0.9994,13.3165 0.9994,13.4845 C0.9994,15.3265 1.2604,17.0535 1.7754,18.6135 C2.2854,20.1585 3.0534,21.5105 4.0584,22.6295 C5.0584,23.7435 6.3134,24.6105 7.7894,25.2035 C9.2804,25.8025 10.9934,26.1065 12.8814,26.1065 C15.2124,26.1065 17.1984,25.6955 18.7844,24.8865 L19.0554,24.7475 L19.3034,24.9255 C20.1874,25.5605 21.0114,26.1225 21.7524,26.5985 C22.4814,27.0665 23.1204,27.4245 23.6534,27.6655 C24.1414,27.8875 24.5494,27.9995 24.8664,27.9995 C25.2104,27.9995 25.4854,27.8755 25.7304,27.6105 C25.9794,27.3395 26.1054,27.0825 26.1054,26.8475 C26.1054,26.6065 26.0544,26.4215 25.9794,26.2605 M21.7704,22.5045 C23.7274,20.2845 24.7284,17.2675 24.7284,13.5185 C24.7284,13.3725 24.7114,13.2375 24.7084,13.0935 C24.6064,16.6795 23.5724,19.5795 21.6064,21.7015 L21.2104,22.1295 L21.6934,22.4555 C21.7174,22.4725 21.7454,22.4885 21.7704,22.5045" fill="#332E09" id="Fill-7" opacity="0.203766325"/></g></g></g></svg>